PathFileType	3	(X/Y/Z)	RCH0000002 BBF 15.c3d
DataRate	CameraRate	NumFrames	NumMarkers	Units	OrigDataRate	OrigDataStartFrame	OrigNumFrames
100.0	100.0	15	23	mm	100.0	381	276
Frame#	Time	T2			MAN			LASI			RASI			LPSI			LPAT			LKNE			LANK			LMED			LHEE			LTOE			RPAT			RKNE			RANK			RMED			RHEE			RTOE			RPSI			T10			RTHI			LTHI			RTIB			LTIB			
		X1	Y1	Z1	X2	Y2	Z2	X3	Y3	Z3	X4	Y4	Z4	X5	Y5	Z5	X6	Y6	Z6	X7	Y7	Z7	X8	Y8	Z8	X9	Y9	Z9	X10	Y10	Z10	X11	Y11	Z11	X12	Y12	Z12	X13	Y13	Z13	X14	Y14	Z14	X15	Y15	Z15	X16	Y16	Z16	X17	Y17	Z17	X18	Y18	Z18	X19	Y19	Z19	X20	Y20	Z20	X21	Y21	Z21	X22	Y22	Z22	X23	Y23	Z23	

381	3.800	1336.95152	26.31975	933.25917	1211.22100	22.13473	985.66716	1279.66915	85.01776	645.74829	1278.13550	-92.17057	634.14462	1174.09290	29.05893	705.67823	1272.36025	53.85894	381.43451	1237.24021	119.24066	343.33064	1199.65258	132.05928	68.47720	1192.51200	63.56075	86.35837	1153.48606	97.56112	97.69443	1244.01912	90.28421	66.74320	1343.99767	-30.49772	368.92981	1286.35967	-74.71180	334.78614	1101.44892	-68.95586	144.62484	1105.72086	-0.25849	156.37388	1086.84199	-36.01281	195.70065	1132.16596	-36.46008	107.71561	1174.04746	-41.62507	700.54872	1202.35175	-3.89751	792.43902	1276.89253	-153.30440	439.91628	1243.22246	183.86170	471.04790	1203.44890	-137.66838	260.95742	1224.67558	189.62332	228.49907	
382	3.810	1346.08336	24.73450	934.76930	1220.75579	19.89090	987.78795	1286.41981	85.62346	647.09272	1287.79029	-91.66350	636.38432	1181.66859	27.93639	706.94576	1275.80349	54.54815	381.64404	1239.48978	119.56799	344.07427	1199.84110	131.60054	69.43252	1193.74125	63.07941	87.42998	1154.33923	96.61211	99.09604	1244.63122	90.26770	67.16188	1362.28259	-29.99487	376.46769	1306.39637	-75.07185	340.14861	1127.23094	-71.50612	144.80215	1130.56090	-2.62338	156.12303	1110.35801	-38.28163	194.87766	1159.76009	-39.32675	109.47526	1182.64580	-42.55721	701.94376	1210.44117	-4.36704	794.38282	1293.67474	-153.68592	444.95320	1246.44460	183.90744	471.90315	1226.03764	-138.90397	264.36214	1225.07448	189.77454	229.21726	
383	3.820	1355.07342	23.21198	936.10303	1230.12013	17.81762	989.66098	1293.26715	86.14764	648.23846	1297.64052	-91.18832	638.50051	1189.33415	26.70289	707.91813	1279.73608	55.12438	381.74410	1242.25202	119.72434	344.72963	1200.20459	131.26086	70.39091	1195.09727	62.71307	88.49153	1155.38841	95.82766	100.54676	1245.35458	90.31422	67.53425	1380.23664	-29.81763	383.97520	1326.15126	-75.68297	345.64046	1153.50179	-74.30931	144.68029	1155.93148	-5.24308	155.50993	1134.33488	-40.78666	193.63978	1187.79762	-42.41838	110.99753	1191.38882	-43.58744	703.10113	1218.53448	-4.78842	796.04588	1310.35610	-154.23881	450.09795	1249.94971	183.78918	472.66044	1248.58046	-140.38146	267.71223	1225.98460	189.83827	229.96070	
384	3.830	1363.94275	21.73836	937.25186	1239.32341	15.88473	991.26572	1300.23588	86.58744	649.19739	1307.68588	-90.74266	640.43617	1197.12153	25.35622	708.62337	1284.07549	55.64753	381.72863	1245.42813	119.78322	345.30158	1200.70458	131.04934	71.33562	1196.54429	62.48219	89.53582	1156.58661	95.21663	102.02233	1246.16466	90.44611	67.86215	1397.83475	-29.95245	391.33485	1345.58940	-76.53377	351.15375	1180.18495	-77.39557	144.32101	1181.75798	-8.14447	154.58740	1158.72424	-43.56267	192.04245	1216.15944	-45.75222	112.31810	1200.29592	-44.72296	704.01265	1226.66426	-5.21489	797.41758	1326.89685	-154.94485	455.26032	1253.71474	183.56451	473.33377	1271.05558	-142.11458	270.97573	1227.30347	189.86947	230.71281	
385	3.840	1372.71377	20.29486	938.21634	1248.38020	14.05126	992.59575	1307.35254	86.93629	649.98486	1317.91681	-90.32875	642.15295	1205.06165	23.90479	709.09330	1288.73119	56.15532	381.59508	1248.91435	119.79736	345.79632	1201.29272	130.94901	72.25473	1198.04629	62.37818	90.55581	1157.88280	94.75344	103.50136	1247.03351	90.66630	68.14880	1415.04502	-30.36383	398.44405	1364.67281	-77.59816	356.58884	1207.20996	-80.79117	143.77794	1207.95718	-11.35266	153.40404	1183.46981	-46.64713	190.13551	1244.73950	-49.33784	113.46865	1209.37864	-45.96050	704.67847	1234.85723	-5.69335	798.49950	1343.24603	-155.77795	460.35240	1257.71965	183.27671	473.93272	1293.44846	-144.10720	274.12193	1228.91256	189.89940	231.45902	
386	3.850	1381.41024	18.85919	939.00360	1257.31022	12.26884	993.65577	1314.64493	87.18524	650.61843	1328.31830	-89.95288	643.62862	1213.18305	22.36378	709.35864	1293.61794	56.66511	381.34420	1252.61643	119.79851	346.22139	1201.92004	130.92609	73.14251	1199.57117	62.37186	91.54656	1159.23019	94.39154	104.96850	1247.93372	90.96278	68.39878	1431.82863	-30.99862	405.20893	1383.35919	-78.83779	361.85113	1234.50652	-84.51347	143.09258	1234.43437	-14.88698	151.99813	1208.50515	-50.07447	187.95936	1273.43852	-53.17416	114.47035	1218.64165	-47.28979	705.10337	1243.13481	-6.26338	799.30265	1359.34628	-156.70566	465.28653	1261.95214	182.95441	474.46317	1315.74561	-146.35134	277.11885	1230.69830	189.93850	232.18887	
387	3.860	1390.05732	17.40701	939.62468	1266.13786	10.48515	994.45803	1322.14124	87.32473	651.11669	1338.87380	-89.62407	644.85307	1221.51086	20.75109	709.44490	1298.66669	57.17825	380.97956	1256.46092	119.79998	346.58546	1202.54517	130.93975	74.00006	1201.09417	62.42311	92.50679	1160.59286	94.07712	106.41632	1248.84198	91.31397	68.61792	1448.14144	-31.79070	411.53761	1401.60255	-80.20545	366.84711	1261.99810	-88.56654	142.29130	1261.08097	-18.75753	150.39308	1233.75149	-53.87073	185.54233	1302.15692	-57.24727	115.32840	1228.08445	-48.69738	705.29308	1251.51408	-6.95704	799.84407	1375.14155	-157.69060	469.97396	1266.41022	182.61314	474.92835	1337.92930	-148.82636	279.93030	1232.56913	189.98152	232.89727	
388	3.870	1398.68132	15.91335	940.09182	1274.89129	8.64713	995.01842	1329.86911	87.34659	651.49809	1349.56907	-89.35217	645.82379	1230.06630	19.08342	709.36928	1303.83207	57.68550	380.50660	1260.40231	119.80092	346.89765	1203.14021	130.95059	74.83516	1202.60009	62.48980	93.43963	1161.94975	93.76047	107.84606	1249.74156	91.69411	68.81322	1463.93706	-32.66576	417.33434	1419.35542	-81.64903	371.48078	1289.59609	-92.93823	141.38327	1287.77268	-22.96255	148.59475	1259.11571	-58.04942	182.89923	1330.78784	-61.52951	116.02821	1237.70368	-50.17017	705.25111	1260.00922	-7.79948	800.14339	1390.58627	-158.69175	474.32484	1271.10267	182.25819	475.32978	1359.97370	-151.49914	282.51261	1234.46687	190.01370	233.58459	
389	3.880	1407.30931	14.35394	940.41611	1283.60127	6.70380	995.35272	1337.85471	87.24576	651.77950	1360.39517	-89.14596	646.54118	1238.86683	17.37329	709.13897	1309.09598	58.17259	379.93130	1264.42594	119.79126	347.16647	1203.69372	130.92684	75.66142	1204.08397	62.53476	94.35256	1163.29583	93.40366	109.26719	1250.62349	92.07780	68.99250	1479.17080	-33.54592	422.49560	1436.57214	-83.11544	375.65135	1317.19491	-97.59897	140.35893	1314.36830	-27.48700	146.59060	1284.48872	-62.60903	180.03086	1359.21118	-65.97985	116.53350	1247.49580	-51.69814	704.97653	1268.63315	-8.80971	800.21925	1405.65375	-159.66568	478.24944	1276.04785	181.88791	475.66778	1381.84271	-154.32564	284.81201	1236.37127	190.01650	234.25592	
390	3.890	1415.96858	12.70633	940.60562	1292.29962	4.60867	995.47322	1346.12199	87.02152	651.97445	1371.35041	-89.01155	647.00457	1247.92677	15.62736	708.75081	1314.46765	58.62496	379.25854	1268.54706	119.75638	347.39819	1204.21053	130.84770	76.49702	1205.55051	62.53019	95.25654	1164.64092	92.98402	110.69610	1251.48641	92.44329	69.16407	1493.80406	-34.35439	426.90925	1453.21255	-84.55449	379.25315	1344.66840	-102.50264	139.18950	1340.70934	-32.30224	144.35107	1309.74407	-67.53209	176.92486	1387.28910	-70.54573	116.78704	1257.45959	-53.27593	704.46295	1277.39931	-10.00155	800.08629	1420.34204	-160.56801	481.66045	1281.27132	181.49684	475.94137	1403.48918	-157.25326	286.76308	1238.29845	189.97220	234.91941	
391	3.900	1424.68589	10.95083	940.66421	1301.01762	2.32162	995.38617	1354.69213	86.67795	652.09116	1382.44092	-88.95132	647.20934	1257.25822	13.84610	708.19236	1319.98069	59.03108	378.49020	1272.80696	119.68095	347.59489	1204.70925	130.70391	77.36311	1207.01251	62.45930	96.16460	1166.00670	92.49373	112.15408	1252.33539	92.77424	69.33614	1507.80866	-35.02002	430.45721	1469.24551	-85.92201	382.17783	1371.86752	-107.58926	137.82783	1366.62024	-37.36695	141.83325	1334.73691	-72.78591	173.55786	1414.86340	-75.16619	116.71424	1267.59818	-54.90314	703.69897	1286.32324	-11.38427	799.75258	1434.67594	-161.35524	484.47601	1286.80285	181.07830	476.14746	1424.85502	-160.22404	288.28935	1240.29457	189.86681	235.58418	
392	3.910	1433.48658	9.07135	940.59103	1309.78446	-0.18958	995.09017	1363.58307	86.22358	652.13043	1393.67978	-88.96386	647.14565	1266.87184	12.02504	707.44408	1325.68826	59.38416	377.62315	1277.26702	119.55134	347.75221	1205.21821	130.49617	78.28201	1208.48880	62.31570	97.09006	1167.42305	91.93673	113.66511	1253.18021	93.06009	69.51617	1521.17044	-35.48196	433.02184	1484.65148	-87.18257	384.31945	1398.61906	-112.78933	136.21138	1391.90953	-42.62892	138.98674	1359.30336	-78.32428	169.89959	1441.75485	-79.77609	116.23007	1277.92006	-56.58346	702.67006	1295.42369	-12.96267	799.21813	1448.70433	-161.98728	486.62303	1292.67357	180.62604	476.27942	1445.87151	-163.17824	289.30658	1242.42676	189.69125	236.25794	
393	3.920	1442.39367	7.05600	940.38078	1318.62578	-2.94809	994.57589	1372.80910	85.67032	652.08381	1405.08478	-89.04471	646.79897	1276.77712	10.15712	706.48235	1331.65727	59.68219	376.64745	1282.00218	119.35687	347.85716	1205.77102	130.23205	79.27551	1210.00224	62.10111	98.04483	1168.92451	91.32411	115.25346	1254.03357	93.29526	69.71010	1533.89188	-35.69400	434.49577	1499.42388	-88.31121	385.58184	1424.72547	-118.02904	134.26792	1416.37200	-48.02757	135.76178	1383.26047	-84.08988	165.91882	1467.76458	-84.31106	115.24892	1288.43876	-58.32264	701.36160	1304.72311	-14.73680	798.47457	1462.49305	-162.43060	488.04057	1298.91366	180.13487	476.32532	1466.45931	-166.05800	289.72902	1244.77369	189.44104	236.94462	
394	3.930	1451.42691	4.89767	940.02470	1327.56252	-5.96716	993.82709	1382.38039	85.03178	651.93239	1416.67492	-89.18792	646.15233	1286.98193	8.23583	705.28309	1337.96238	59.92658	375.54486	1287.09445	119.08974	347.88634	1206.40308	129.92255	80.36323	1211.57810	61.82244	99.03801	1170.54779	90.66949	116.94159	1254.90989	93.47761	69.92165	1545.99315	-35.62883	434.79409	1513.56896	-89.29469	385.88785	1449.96591	-123.23583	131.92421	1439.79226	-53.49679	132.11895	1406.40736	-90.01671	161.59136	1492.67745	-88.71264	113.69678	1299.17118	-60.12584	699.76288	1314.24710	-16.70096	797.50615	1476.11416	-162.66206	488.68326	1305.55089	179.60051	476.26612	1486.52801	-168.81089	289.47835	1247.41745	189.11504	237.64218	
395	3.940	1460.60199	2.59445	939.51217	1336.61016	-9.24936	992.82295	1392.30234	84.32137	651.64661	1428.46614	-89.38815	645.19033	1297.49108	6.25874	703.82544	1344.68064	60.11977	374.28821	1292.62737	118.74414	347.80492	1207.14979	129.57893	81.56131	1213.24325	61.48873	100.07506	1172.33068	89.98542	118.74838	1255.82503	93.60644	70.15167	1557.51154	-35.28142	433.86794	1527.10418	-90.13188	385.18964	1474.09930	-128.34345	129.11740	1461.95011	-58.96791	128.03966	1428.52819	-96.03234	156.90930	1516.26772	-92.93298	111.52443	1310.13447	-61.99469	697.87155	1324.02297	-18.84235	796.29216	1489.63336	-162.67292	488.52481	1312.61009	179.01857	476.07442	1505.97521	-171.39303	288.49461	1250.43836	188.71379	238.34085	
